G04 #@! TF.GenerationSoftware,KiCad,Pcbnew,5.1.1-8be2ce7~80~ubuntu18.04.1*
G04 #@! TF.CreationDate,2019-04-20T17:41:40+02:00*
G04 #@! TF.ProjectId,EH19,45483139-2e6b-4696-9361-645f70636258,rev?*
G04 #@! TF.SameCoordinates,Original*
G04 #@! TF.FileFunction,Copper,L2,Bot*
G04 #@! TF.FilePolarity,Positive*
%FSLAX46Y46*%
G04 Gerber Fmt 4.6, Leading zero omitted, Abs format (unit mm)*
G04 Created by KiCad (PCBNEW 5.1.1-8be2ce7~80~ubuntu18.04.1) date 2019-04-20 17:41:40*
%MOMM*%
%LPD*%
G04 APERTURE LIST*
%ADD10C,5.000000*%
%ADD11C,2.000000*%
%ADD12O,2.400000X2.400000*%
%ADD13C,2.400000*%
%ADD14O,2.000000X3.600000*%
%ADD15C,0.100000*%
%ADD16C,1.800000*%
%ADD17R,1.800000X1.800000*%
%ADD18C,0.800000*%
%ADD19C,0.254000*%
G04 APERTURE END LIST*
D10*
X135890000Y-90170000D03*
X163830000Y-90170000D03*
X135890000Y-68580000D03*
X163830000Y-68580000D03*
X163830000Y-110490000D03*
X135890000Y-110490000D03*
D11*
X146050000Y-81280000D03*
X150550000Y-81280000D03*
X146050000Y-87780000D03*
X150550000Y-87780000D03*
D12*
X156210000Y-88900000D03*
D13*
X156210000Y-68580000D03*
D14*
X153550000Y-104140000D03*
D15*
G36*
X146824504Y-102341204D02*
G01*
X146848773Y-102344804D01*
X146872571Y-102350765D01*
X146895671Y-102359030D01*
X146917849Y-102369520D01*
X146938893Y-102382133D01*
X146958598Y-102396747D01*
X146976777Y-102413223D01*
X146993253Y-102431402D01*
X147007867Y-102451107D01*
X147020480Y-102472151D01*
X147030970Y-102494329D01*
X147039235Y-102517429D01*
X147045196Y-102541227D01*
X147048796Y-102565496D01*
X147050000Y-102590000D01*
X147050000Y-105690000D01*
X147048796Y-105714504D01*
X147045196Y-105738773D01*
X147039235Y-105762571D01*
X147030970Y-105785671D01*
X147020480Y-105807849D01*
X147007867Y-105828893D01*
X146993253Y-105848598D01*
X146976777Y-105866777D01*
X146958598Y-105883253D01*
X146938893Y-105897867D01*
X146917849Y-105910480D01*
X146895671Y-105920970D01*
X146872571Y-105929235D01*
X146848773Y-105935196D01*
X146824504Y-105938796D01*
X146800000Y-105940000D01*
X145300000Y-105940000D01*
X145275496Y-105938796D01*
X145251227Y-105935196D01*
X145227429Y-105929235D01*
X145204329Y-105920970D01*
X145182151Y-105910480D01*
X145161107Y-105897867D01*
X145141402Y-105883253D01*
X145123223Y-105866777D01*
X145106747Y-105848598D01*
X145092133Y-105828893D01*
X145079520Y-105807849D01*
X145069030Y-105785671D01*
X145060765Y-105762571D01*
X145054804Y-105738773D01*
X145051204Y-105714504D01*
X145050000Y-105690000D01*
X145050000Y-102590000D01*
X145051204Y-102565496D01*
X145054804Y-102541227D01*
X145060765Y-102517429D01*
X145069030Y-102494329D01*
X145079520Y-102472151D01*
X145092133Y-102451107D01*
X145106747Y-102431402D01*
X145123223Y-102413223D01*
X145141402Y-102396747D01*
X145161107Y-102382133D01*
X145182151Y-102369520D01*
X145204329Y-102359030D01*
X145227429Y-102350765D01*
X145251227Y-102344804D01*
X145275496Y-102341204D01*
X145300000Y-102340000D01*
X146800000Y-102340000D01*
X146824504Y-102341204D01*
X146824504Y-102341204D01*
G37*
D11*
X146050000Y-104140000D03*
D16*
X156210000Y-93980000D03*
D17*
X153670000Y-93980000D03*
D18*
X156210000Y-88900000D02*
X156210000Y-93980000D01*
X153670000Y-104020000D02*
X153550000Y-104140000D01*
X153670000Y-93980000D02*
X153670000Y-104020000D01*
X146050000Y-87780000D02*
X146050000Y-104140000D01*
X150550000Y-81280000D02*
X150550000Y-70430000D01*
X150550000Y-70430000D02*
X152400000Y-68580000D01*
X152400000Y-68580000D02*
X156210000Y-68580000D01*
D19*
G36*
X162915554Y-65565476D02*
G01*
X162345021Y-65801799D01*
X161831554Y-66144886D01*
X161394886Y-66581554D01*
X161051799Y-67095021D01*
X160815476Y-67665554D01*
X160695000Y-68271229D01*
X160695000Y-68888771D01*
X160815476Y-69494446D01*
X161051799Y-70064979D01*
X161394886Y-70578446D01*
X161831554Y-71015114D01*
X162345021Y-71358201D01*
X162915554Y-71594524D01*
X163521229Y-71715000D01*
X164138771Y-71715000D01*
X164744446Y-71594524D01*
X165314979Y-71358201D01*
X165828446Y-71015114D01*
X166265114Y-70578446D01*
X166608201Y-70064979D01*
X166844524Y-69494446D01*
X166955000Y-68939044D01*
X166955001Y-89810956D01*
X166844524Y-89255554D01*
X166608201Y-88685021D01*
X166265114Y-88171554D01*
X165828446Y-87734886D01*
X165314979Y-87391799D01*
X164744446Y-87155476D01*
X164138771Y-87035000D01*
X163521229Y-87035000D01*
X162915554Y-87155476D01*
X162345021Y-87391799D01*
X161831554Y-87734886D01*
X161394886Y-88171554D01*
X161051799Y-88685021D01*
X160815476Y-89255554D01*
X160695000Y-89861229D01*
X160695000Y-90478771D01*
X160815476Y-91084446D01*
X161051799Y-91654979D01*
X161394886Y-92168446D01*
X161831554Y-92605114D01*
X162345021Y-92948201D01*
X162915554Y-93184524D01*
X163521229Y-93305000D01*
X164138771Y-93305000D01*
X164744446Y-93184524D01*
X165314979Y-92948201D01*
X165828446Y-92605114D01*
X166265114Y-92168446D01*
X166608201Y-91654979D01*
X166844524Y-91084446D01*
X166955001Y-90529044D01*
X166955001Y-110130960D01*
X166844524Y-109575554D01*
X166608201Y-109005021D01*
X166265114Y-108491554D01*
X165828446Y-108054886D01*
X165314979Y-107711799D01*
X164744446Y-107475476D01*
X164138771Y-107355000D01*
X163521229Y-107355000D01*
X162915554Y-107475476D01*
X162345021Y-107711799D01*
X161831554Y-108054886D01*
X161394886Y-108491554D01*
X161051799Y-109005021D01*
X160815476Y-109575554D01*
X160695000Y-110181229D01*
X160695000Y-110798771D01*
X160815476Y-111404446D01*
X161051799Y-111974979D01*
X161394886Y-112488446D01*
X161831554Y-112925114D01*
X162345021Y-113268201D01*
X162915554Y-113504524D01*
X163470956Y-113615000D01*
X136249044Y-113615000D01*
X136804446Y-113504524D01*
X137374979Y-113268201D01*
X137888446Y-112925114D01*
X138325114Y-112488446D01*
X138668201Y-111974979D01*
X138904524Y-111404446D01*
X139025000Y-110798771D01*
X139025000Y-110181229D01*
X138904524Y-109575554D01*
X138668201Y-109005021D01*
X138325114Y-108491554D01*
X137888446Y-108054886D01*
X137374979Y-107711799D01*
X136804446Y-107475476D01*
X136198771Y-107355000D01*
X135581229Y-107355000D01*
X134975554Y-107475476D01*
X134405021Y-107711799D01*
X133891554Y-108054886D01*
X133454886Y-108491554D01*
X133111799Y-109005021D01*
X132875476Y-109575554D01*
X132765000Y-110130956D01*
X132765000Y-105940000D01*
X144411928Y-105940000D01*
X144424188Y-106064482D01*
X144460498Y-106184180D01*
X144519463Y-106294494D01*
X144598815Y-106391185D01*
X144695506Y-106470537D01*
X144805820Y-106529502D01*
X144925518Y-106565812D01*
X145050000Y-106578072D01*
X145764250Y-106575000D01*
X145923000Y-106416250D01*
X145923000Y-104267000D01*
X146177000Y-104267000D01*
X146177000Y-106416250D01*
X146335750Y-106575000D01*
X147050000Y-106578072D01*
X147174482Y-106565812D01*
X147294180Y-106529502D01*
X147404494Y-106470537D01*
X147501185Y-106391185D01*
X147580537Y-106294494D01*
X147639502Y-106184180D01*
X147675812Y-106064482D01*
X147688072Y-105940000D01*
X147685000Y-104425750D01*
X147526250Y-104267000D01*
X146177000Y-104267000D01*
X145923000Y-104267000D01*
X144573750Y-104267000D01*
X144415000Y-104425750D01*
X144411928Y-105940000D01*
X132765000Y-105940000D01*
X132765000Y-102340000D01*
X144411928Y-102340000D01*
X144415000Y-103854250D01*
X144573750Y-104013000D01*
X145923000Y-104013000D01*
X145923000Y-101863750D01*
X146177000Y-101863750D01*
X146177000Y-104013000D01*
X147526250Y-104013000D01*
X147685000Y-103854250D01*
X147686206Y-103259679D01*
X151915000Y-103259679D01*
X151915000Y-105020322D01*
X151938658Y-105260516D01*
X152032149Y-105568715D01*
X152183970Y-105852752D01*
X152388287Y-106101714D01*
X152637249Y-106306031D01*
X152921286Y-106457852D01*
X153229485Y-106551343D01*
X153550000Y-106582911D01*
X153870516Y-106551343D01*
X154178715Y-106457852D01*
X154462752Y-106306031D01*
X154711714Y-106101714D01*
X154916031Y-105852752D01*
X155067852Y-105568715D01*
X155161343Y-105260516D01*
X155185000Y-105020322D01*
X155185000Y-103259678D01*
X155161343Y-103019484D01*
X155067852Y-102711285D01*
X154916031Y-102427248D01*
X154711714Y-102178286D01*
X154705000Y-102172776D01*
X154705000Y-95502621D01*
X154814180Y-95469502D01*
X154924494Y-95410537D01*
X155021185Y-95331185D01*
X155100537Y-95234494D01*
X155159502Y-95124180D01*
X155165056Y-95105873D01*
X155231495Y-95172312D01*
X155482905Y-95340299D01*
X155762257Y-95456011D01*
X156058816Y-95515000D01*
X156361184Y-95515000D01*
X156657743Y-95456011D01*
X156937095Y-95340299D01*
X157188505Y-95172312D01*
X157402312Y-94958505D01*
X157570299Y-94707095D01*
X157686011Y-94427743D01*
X157745000Y-94131184D01*
X157745000Y-93828816D01*
X157686011Y-93532257D01*
X157570299Y-93252905D01*
X157402312Y-93001495D01*
X157245000Y-92844183D01*
X157245000Y-90424433D01*
X157513819Y-90203819D01*
X157743129Y-89924404D01*
X157913521Y-89605622D01*
X158018448Y-89259723D01*
X158053878Y-88900000D01*
X158018448Y-88540277D01*
X157913521Y-88194378D01*
X157743129Y-87875596D01*
X157513819Y-87596181D01*
X157234404Y-87366871D01*
X156915622Y-87196479D01*
X156569723Y-87091552D01*
X156300139Y-87065000D01*
X156119861Y-87065000D01*
X155850277Y-87091552D01*
X155504378Y-87196479D01*
X155185596Y-87366871D01*
X154906181Y-87596181D01*
X154676871Y-87875596D01*
X154506479Y-88194378D01*
X154401552Y-88540277D01*
X154366122Y-88900000D01*
X154401552Y-89259723D01*
X154506479Y-89605622D01*
X154676871Y-89924404D01*
X154906181Y-90203819D01*
X155175000Y-90424433D01*
X155175001Y-92844182D01*
X155165056Y-92854127D01*
X155159502Y-92835820D01*
X155100537Y-92725506D01*
X155021185Y-92628815D01*
X154924494Y-92549463D01*
X154814180Y-92490498D01*
X154694482Y-92454188D01*
X154570000Y-92441928D01*
X152770000Y-92441928D01*
X152645518Y-92454188D01*
X152525820Y-92490498D01*
X152415506Y-92549463D01*
X152318815Y-92628815D01*
X152239463Y-92725506D01*
X152180498Y-92835820D01*
X152144188Y-92955518D01*
X152131928Y-93080000D01*
X152131928Y-94880000D01*
X152144188Y-95004482D01*
X152180498Y-95124180D01*
X152239463Y-95234494D01*
X152318815Y-95331185D01*
X152415506Y-95410537D01*
X152525820Y-95469502D01*
X152635000Y-95502621D01*
X152635001Y-101975813D01*
X152388286Y-102178286D01*
X152183969Y-102427249D01*
X152032148Y-102711286D01*
X151938657Y-103019485D01*
X151915000Y-103259679D01*
X147686206Y-103259679D01*
X147688072Y-102340000D01*
X147675812Y-102215518D01*
X147639502Y-102095820D01*
X147580537Y-101985506D01*
X147501185Y-101888815D01*
X147404494Y-101809463D01*
X147294180Y-101750498D01*
X147174482Y-101714188D01*
X147050000Y-101701928D01*
X146335750Y-101705000D01*
X146177000Y-101863750D01*
X145923000Y-101863750D01*
X145764250Y-101705000D01*
X145050000Y-101701928D01*
X144925518Y-101714188D01*
X144805820Y-101750498D01*
X144695506Y-101809463D01*
X144598815Y-101888815D01*
X144519463Y-101985506D01*
X144460498Y-102095820D01*
X144424188Y-102215518D01*
X144411928Y-102340000D01*
X132765000Y-102340000D01*
X132765000Y-90529044D01*
X132875476Y-91084446D01*
X133111799Y-91654979D01*
X133454886Y-92168446D01*
X133891554Y-92605114D01*
X134405021Y-92948201D01*
X134975554Y-93184524D01*
X135581229Y-93305000D01*
X136198771Y-93305000D01*
X136804446Y-93184524D01*
X137374979Y-92948201D01*
X137888446Y-92605114D01*
X138325114Y-92168446D01*
X138668201Y-91654979D01*
X138904524Y-91084446D01*
X139025000Y-90478771D01*
X139025000Y-89861229D01*
X138904524Y-89255554D01*
X138763633Y-88915413D01*
X145094192Y-88915413D01*
X145189956Y-89179814D01*
X145479571Y-89320704D01*
X145791108Y-89402384D01*
X146112595Y-89421718D01*
X146431675Y-89377961D01*
X146736088Y-89272795D01*
X146910044Y-89179814D01*
X147005808Y-88915413D01*
X146050000Y-87959605D01*
X145094192Y-88915413D01*
X138763633Y-88915413D01*
X138668201Y-88685021D01*
X138325114Y-88171554D01*
X137996155Y-87842595D01*
X144408282Y-87842595D01*
X144452039Y-88161675D01*
X144557205Y-88466088D01*
X144650186Y-88640044D01*
X144914587Y-88735808D01*
X145870395Y-87780000D01*
X146229605Y-87780000D01*
X147185413Y-88735808D01*
X147449814Y-88640044D01*
X147590704Y-88350429D01*
X147672384Y-88038892D01*
X147691718Y-87717405D01*
X147678219Y-87618967D01*
X148915000Y-87618967D01*
X148915000Y-87941033D01*
X148977832Y-88256912D01*
X149101082Y-88554463D01*
X149280013Y-88822252D01*
X149507748Y-89049987D01*
X149775537Y-89228918D01*
X150073088Y-89352168D01*
X150388967Y-89415000D01*
X150711033Y-89415000D01*
X151026912Y-89352168D01*
X151324463Y-89228918D01*
X151592252Y-89049987D01*
X151819987Y-88822252D01*
X151998918Y-88554463D01*
X152122168Y-88256912D01*
X152185000Y-87941033D01*
X152185000Y-87618967D01*
X152122168Y-87303088D01*
X151998918Y-87005537D01*
X151819987Y-86737748D01*
X151592252Y-86510013D01*
X151324463Y-86331082D01*
X151026912Y-86207832D01*
X150711033Y-86145000D01*
X150388967Y-86145000D01*
X150073088Y-86207832D01*
X149775537Y-86331082D01*
X149507748Y-86510013D01*
X149280013Y-86737748D01*
X149101082Y-87005537D01*
X148977832Y-87303088D01*
X148915000Y-87618967D01*
X147678219Y-87618967D01*
X147647961Y-87398325D01*
X147542795Y-87093912D01*
X147449814Y-86919956D01*
X147185413Y-86824192D01*
X146229605Y-87780000D01*
X145870395Y-87780000D01*
X144914587Y-86824192D01*
X144650186Y-86919956D01*
X144509296Y-87209571D01*
X144427616Y-87521108D01*
X144408282Y-87842595D01*
X137996155Y-87842595D01*
X137888446Y-87734886D01*
X137374979Y-87391799D01*
X136804446Y-87155476D01*
X136198771Y-87035000D01*
X135581229Y-87035000D01*
X134975554Y-87155476D01*
X134405021Y-87391799D01*
X133891554Y-87734886D01*
X133454886Y-88171554D01*
X133111799Y-88685021D01*
X132875476Y-89255554D01*
X132765000Y-89810956D01*
X132765000Y-86644587D01*
X145094192Y-86644587D01*
X146050000Y-87600395D01*
X147005808Y-86644587D01*
X146910044Y-86380186D01*
X146620429Y-86239296D01*
X146308892Y-86157616D01*
X145987405Y-86138282D01*
X145668325Y-86182039D01*
X145363912Y-86287205D01*
X145189956Y-86380186D01*
X145094192Y-86644587D01*
X132765000Y-86644587D01*
X132765000Y-82415413D01*
X145094192Y-82415413D01*
X145189956Y-82679814D01*
X145479571Y-82820704D01*
X145791108Y-82902384D01*
X146112595Y-82921718D01*
X146431675Y-82877961D01*
X146736088Y-82772795D01*
X146910044Y-82679814D01*
X147005808Y-82415413D01*
X146050000Y-81459605D01*
X145094192Y-82415413D01*
X132765000Y-82415413D01*
X132765000Y-81342595D01*
X144408282Y-81342595D01*
X144452039Y-81661675D01*
X144557205Y-81966088D01*
X144650186Y-82140044D01*
X144914587Y-82235808D01*
X145870395Y-81280000D01*
X146229605Y-81280000D01*
X147185413Y-82235808D01*
X147449814Y-82140044D01*
X147590704Y-81850429D01*
X147672384Y-81538892D01*
X147691718Y-81217405D01*
X147678219Y-81118967D01*
X148915000Y-81118967D01*
X148915000Y-81441033D01*
X148977832Y-81756912D01*
X149101082Y-82054463D01*
X149280013Y-82322252D01*
X149507748Y-82549987D01*
X149775537Y-82728918D01*
X150073088Y-82852168D01*
X150388967Y-82915000D01*
X150711033Y-82915000D01*
X151026912Y-82852168D01*
X151324463Y-82728918D01*
X151592252Y-82549987D01*
X151819987Y-82322252D01*
X151998918Y-82054463D01*
X152122168Y-81756912D01*
X152185000Y-81441033D01*
X152185000Y-81118967D01*
X152122168Y-80803088D01*
X151998918Y-80505537D01*
X151819987Y-80237748D01*
X151592252Y-80010013D01*
X151585000Y-80005167D01*
X151585000Y-70858710D01*
X152828711Y-69615000D01*
X154694629Y-69615000D01*
X154784662Y-69749744D01*
X155040256Y-70005338D01*
X155340801Y-70206156D01*
X155674750Y-70344482D01*
X156029268Y-70415000D01*
X156390732Y-70415000D01*
X156745250Y-70344482D01*
X157079199Y-70206156D01*
X157379744Y-70005338D01*
X157635338Y-69749744D01*
X157836156Y-69449199D01*
X157974482Y-69115250D01*
X158045000Y-68760732D01*
X158045000Y-68399268D01*
X157974482Y-68044750D01*
X157836156Y-67710801D01*
X157635338Y-67410256D01*
X157379744Y-67154662D01*
X157079199Y-66953844D01*
X156745250Y-66815518D01*
X156390732Y-66745000D01*
X156029268Y-66745000D01*
X155674750Y-66815518D01*
X155340801Y-66953844D01*
X155040256Y-67154662D01*
X154784662Y-67410256D01*
X154694629Y-67545000D01*
X152450827Y-67545000D01*
X152399999Y-67539994D01*
X152349171Y-67545000D01*
X152349162Y-67545000D01*
X152197105Y-67559976D01*
X152002007Y-67619159D01*
X151918309Y-67663896D01*
X151822202Y-67715266D01*
X151704092Y-67812197D01*
X151664604Y-67844604D01*
X151632197Y-67884092D01*
X149854092Y-69662198D01*
X149814605Y-69694604D01*
X149782198Y-69734092D01*
X149782197Y-69734093D01*
X149685266Y-69852203D01*
X149589160Y-70032007D01*
X149529977Y-70227105D01*
X149509994Y-70430000D01*
X149515001Y-70480838D01*
X149515000Y-80005167D01*
X149507748Y-80010013D01*
X149280013Y-80237748D01*
X149101082Y-80505537D01*
X148977832Y-80803088D01*
X148915000Y-81118967D01*
X147678219Y-81118967D01*
X147647961Y-80898325D01*
X147542795Y-80593912D01*
X147449814Y-80419956D01*
X147185413Y-80324192D01*
X146229605Y-81280000D01*
X145870395Y-81280000D01*
X144914587Y-80324192D01*
X144650186Y-80419956D01*
X144509296Y-80709571D01*
X144427616Y-81021108D01*
X144408282Y-81342595D01*
X132765000Y-81342595D01*
X132765000Y-80144587D01*
X145094192Y-80144587D01*
X146050000Y-81100395D01*
X147005808Y-80144587D01*
X146910044Y-79880186D01*
X146620429Y-79739296D01*
X146308892Y-79657616D01*
X145987405Y-79638282D01*
X145668325Y-79682039D01*
X145363912Y-79787205D01*
X145189956Y-79880186D01*
X145094192Y-80144587D01*
X132765000Y-80144587D01*
X132765000Y-68939044D01*
X132875476Y-69494446D01*
X133111799Y-70064979D01*
X133454886Y-70578446D01*
X133891554Y-71015114D01*
X134405021Y-71358201D01*
X134975554Y-71594524D01*
X135581229Y-71715000D01*
X136198771Y-71715000D01*
X136804446Y-71594524D01*
X137374979Y-71358201D01*
X137888446Y-71015114D01*
X138325114Y-70578446D01*
X138668201Y-70064979D01*
X138904524Y-69494446D01*
X139025000Y-68888771D01*
X139025000Y-68271229D01*
X138904524Y-67665554D01*
X138668201Y-67095021D01*
X138325114Y-66581554D01*
X137888446Y-66144886D01*
X137374979Y-65801799D01*
X136804446Y-65565476D01*
X136249044Y-65455000D01*
X163470956Y-65455000D01*
X162915554Y-65565476D01*
X162915554Y-65565476D01*
G37*
X162915554Y-65565476D02*
X162345021Y-65801799D01*
X161831554Y-66144886D01*
X161394886Y-66581554D01*
X161051799Y-67095021D01*
X160815476Y-67665554D01*
X160695000Y-68271229D01*
X160695000Y-68888771D01*
X160815476Y-69494446D01*
X161051799Y-70064979D01*
X161394886Y-70578446D01*
X161831554Y-71015114D01*
X162345021Y-71358201D01*
X162915554Y-71594524D01*
X163521229Y-71715000D01*
X164138771Y-71715000D01*
X164744446Y-71594524D01*
X165314979Y-71358201D01*
X165828446Y-71015114D01*
X166265114Y-70578446D01*
X166608201Y-70064979D01*
X166844524Y-69494446D01*
X166955000Y-68939044D01*
X166955001Y-89810956D01*
X166844524Y-89255554D01*
X166608201Y-88685021D01*
X166265114Y-88171554D01*
X165828446Y-87734886D01*
X165314979Y-87391799D01*
X164744446Y-87155476D01*
X164138771Y-87035000D01*
X163521229Y-87035000D01*
X162915554Y-87155476D01*
X162345021Y-87391799D01*
X161831554Y-87734886D01*
X161394886Y-88171554D01*
X161051799Y-88685021D01*
X160815476Y-89255554D01*
X160695000Y-89861229D01*
X160695000Y-90478771D01*
X160815476Y-91084446D01*
X161051799Y-91654979D01*
X161394886Y-92168446D01*
X161831554Y-92605114D01*
X162345021Y-92948201D01*
X162915554Y-93184524D01*
X163521229Y-93305000D01*
X164138771Y-93305000D01*
X164744446Y-93184524D01*
X165314979Y-92948201D01*
X165828446Y-92605114D01*
X166265114Y-92168446D01*
X166608201Y-91654979D01*
X166844524Y-91084446D01*
X166955001Y-90529044D01*
X166955001Y-110130960D01*
X166844524Y-109575554D01*
X166608201Y-109005021D01*
X166265114Y-108491554D01*
X165828446Y-108054886D01*
X165314979Y-107711799D01*
X164744446Y-107475476D01*
X164138771Y-107355000D01*
X163521229Y-107355000D01*
X162915554Y-107475476D01*
X162345021Y-107711799D01*
X161831554Y-108054886D01*
X161394886Y-108491554D01*
X161051799Y-109005021D01*
X160815476Y-109575554D01*
X160695000Y-110181229D01*
X160695000Y-110798771D01*
X160815476Y-111404446D01*
X161051799Y-111974979D01*
X161394886Y-112488446D01*
X161831554Y-112925114D01*
X162345021Y-113268201D01*
X162915554Y-113504524D01*
X163470956Y-113615000D01*
X136249044Y-113615000D01*
X136804446Y-113504524D01*
X137374979Y-113268201D01*
X137888446Y-112925114D01*
X138325114Y-112488446D01*
X138668201Y-111974979D01*
X138904524Y-111404446D01*
X139025000Y-110798771D01*
X139025000Y-110181229D01*
X138904524Y-109575554D01*
X138668201Y-109005021D01*
X138325114Y-108491554D01*
X137888446Y-108054886D01*
X137374979Y-107711799D01*
X136804446Y-107475476D01*
X136198771Y-107355000D01*
X135581229Y-107355000D01*
X134975554Y-107475476D01*
X134405021Y-107711799D01*
X133891554Y-108054886D01*
X133454886Y-108491554D01*
X133111799Y-109005021D01*
X132875476Y-109575554D01*
X132765000Y-110130956D01*
X132765000Y-105940000D01*
X144411928Y-105940000D01*
X144424188Y-106064482D01*
X144460498Y-106184180D01*
X144519463Y-106294494D01*
X144598815Y-106391185D01*
X144695506Y-106470537D01*
X144805820Y-106529502D01*
X144925518Y-106565812D01*
X145050000Y-106578072D01*
X145764250Y-106575000D01*
X145923000Y-106416250D01*
X145923000Y-104267000D01*
X146177000Y-104267000D01*
X146177000Y-106416250D01*
X146335750Y-106575000D01*
X147050000Y-106578072D01*
X147174482Y-106565812D01*
X147294180Y-106529502D01*
X147404494Y-106470537D01*
X147501185Y-106391185D01*
X147580537Y-106294494D01*
X147639502Y-106184180D01*
X147675812Y-106064482D01*
X147688072Y-105940000D01*
X147685000Y-104425750D01*
X147526250Y-104267000D01*
X146177000Y-104267000D01*
X145923000Y-104267000D01*
X144573750Y-104267000D01*
X144415000Y-104425750D01*
X144411928Y-105940000D01*
X132765000Y-105940000D01*
X132765000Y-102340000D01*
X144411928Y-102340000D01*
X144415000Y-103854250D01*
X144573750Y-104013000D01*
X145923000Y-104013000D01*
X145923000Y-101863750D01*
X146177000Y-101863750D01*
X146177000Y-104013000D01*
X147526250Y-104013000D01*
X147685000Y-103854250D01*
X147686206Y-103259679D01*
X151915000Y-103259679D01*
X151915000Y-105020322D01*
X151938658Y-105260516D01*
X152032149Y-105568715D01*
X152183970Y-105852752D01*
X152388287Y-106101714D01*
X152637249Y-106306031D01*
X152921286Y-106457852D01*
X153229485Y-106551343D01*
X153550000Y-106582911D01*
X153870516Y-106551343D01*
X154178715Y-106457852D01*
X154462752Y-106306031D01*
X154711714Y-106101714D01*
X154916031Y-105852752D01*
X155067852Y-105568715D01*
X155161343Y-105260516D01*
X155185000Y-105020322D01*
X155185000Y-103259678D01*
X155161343Y-103019484D01*
X155067852Y-102711285D01*
X154916031Y-102427248D01*
X154711714Y-102178286D01*
X154705000Y-102172776D01*
X154705000Y-95502621D01*
X154814180Y-95469502D01*
X154924494Y-95410537D01*
X155021185Y-95331185D01*
X155100537Y-95234494D01*
X155159502Y-95124180D01*
X155165056Y-95105873D01*
X155231495Y-95172312D01*
X155482905Y-95340299D01*
X155762257Y-95456011D01*
X156058816Y-95515000D01*
X156361184Y-95515000D01*
X156657743Y-95456011D01*
X156937095Y-95340299D01*
X157188505Y-95172312D01*
X157402312Y-94958505D01*
X157570299Y-94707095D01*
X157686011Y-94427743D01*
X157745000Y-94131184D01*
X157745000Y-93828816D01*
X157686011Y-93532257D01*
X157570299Y-93252905D01*
X157402312Y-93001495D01*
X157245000Y-92844183D01*
X157245000Y-90424433D01*
X157513819Y-90203819D01*
X157743129Y-89924404D01*
X157913521Y-89605622D01*
X158018448Y-89259723D01*
X158053878Y-88900000D01*
X158018448Y-88540277D01*
X157913521Y-88194378D01*
X157743129Y-87875596D01*
X157513819Y-87596181D01*
X157234404Y-87366871D01*
X156915622Y-87196479D01*
X156569723Y-87091552D01*
X156300139Y-87065000D01*
X156119861Y-87065000D01*
X155850277Y-87091552D01*
X155504378Y-87196479D01*
X155185596Y-87366871D01*
X154906181Y-87596181D01*
X154676871Y-87875596D01*
X154506479Y-88194378D01*
X154401552Y-88540277D01*
X154366122Y-88900000D01*
X154401552Y-89259723D01*
X154506479Y-89605622D01*
X154676871Y-89924404D01*
X154906181Y-90203819D01*
X155175000Y-90424433D01*
X155175001Y-92844182D01*
X155165056Y-92854127D01*
X155159502Y-92835820D01*
X155100537Y-92725506D01*
X155021185Y-92628815D01*
X154924494Y-92549463D01*
X154814180Y-92490498D01*
X154694482Y-92454188D01*
X154570000Y-92441928D01*
X152770000Y-92441928D01*
X152645518Y-92454188D01*
X152525820Y-92490498D01*
X152415506Y-92549463D01*
X152318815Y-92628815D01*
X152239463Y-92725506D01*
X152180498Y-92835820D01*
X152144188Y-92955518D01*
X152131928Y-93080000D01*
X152131928Y-94880000D01*
X152144188Y-95004482D01*
X152180498Y-95124180D01*
X152239463Y-95234494D01*
X152318815Y-95331185D01*
X152415506Y-95410537D01*
X152525820Y-95469502D01*
X152635000Y-95502621D01*
X152635001Y-101975813D01*
X152388286Y-102178286D01*
X152183969Y-102427249D01*
X152032148Y-102711286D01*
X151938657Y-103019485D01*
X151915000Y-103259679D01*
X147686206Y-103259679D01*
X147688072Y-102340000D01*
X147675812Y-102215518D01*
X147639502Y-102095820D01*
X147580537Y-101985506D01*
X147501185Y-101888815D01*
X147404494Y-101809463D01*
X147294180Y-101750498D01*
X147174482Y-101714188D01*
X147050000Y-101701928D01*
X146335750Y-101705000D01*
X146177000Y-101863750D01*
X145923000Y-101863750D01*
X145764250Y-101705000D01*
X145050000Y-101701928D01*
X144925518Y-101714188D01*
X144805820Y-101750498D01*
X144695506Y-101809463D01*
X144598815Y-101888815D01*
X144519463Y-101985506D01*
X144460498Y-102095820D01*
X144424188Y-102215518D01*
X144411928Y-102340000D01*
X132765000Y-102340000D01*
X132765000Y-90529044D01*
X132875476Y-91084446D01*
X133111799Y-91654979D01*
X133454886Y-92168446D01*
X133891554Y-92605114D01*
X134405021Y-92948201D01*
X134975554Y-93184524D01*
X135581229Y-93305000D01*
X136198771Y-93305000D01*
X136804446Y-93184524D01*
X137374979Y-92948201D01*
X137888446Y-92605114D01*
X138325114Y-92168446D01*
X138668201Y-91654979D01*
X138904524Y-91084446D01*
X139025000Y-90478771D01*
X139025000Y-89861229D01*
X138904524Y-89255554D01*
X138763633Y-88915413D01*
X145094192Y-88915413D01*
X145189956Y-89179814D01*
X145479571Y-89320704D01*
X145791108Y-89402384D01*
X146112595Y-89421718D01*
X146431675Y-89377961D01*
X146736088Y-89272795D01*
X146910044Y-89179814D01*
X147005808Y-88915413D01*
X146050000Y-87959605D01*
X145094192Y-88915413D01*
X138763633Y-88915413D01*
X138668201Y-88685021D01*
X138325114Y-88171554D01*
X137996155Y-87842595D01*
X144408282Y-87842595D01*
X144452039Y-88161675D01*
X144557205Y-88466088D01*
X144650186Y-88640044D01*
X144914587Y-88735808D01*
X145870395Y-87780000D01*
X146229605Y-87780000D01*
X147185413Y-88735808D01*
X147449814Y-88640044D01*
X147590704Y-88350429D01*
X147672384Y-88038892D01*
X147691718Y-87717405D01*
X147678219Y-87618967D01*
X148915000Y-87618967D01*
X148915000Y-87941033D01*
X148977832Y-88256912D01*
X149101082Y-88554463D01*
X149280013Y-88822252D01*
X149507748Y-89049987D01*
X149775537Y-89228918D01*
X150073088Y-89352168D01*
X150388967Y-89415000D01*
X150711033Y-89415000D01*
X151026912Y-89352168D01*
X151324463Y-89228918D01*
X151592252Y-89049987D01*
X151819987Y-88822252D01*
X151998918Y-88554463D01*
X152122168Y-88256912D01*
X152185000Y-87941033D01*
X152185000Y-87618967D01*
X152122168Y-87303088D01*
X151998918Y-87005537D01*
X151819987Y-86737748D01*
X151592252Y-86510013D01*
X151324463Y-86331082D01*
X151026912Y-86207832D01*
X150711033Y-86145000D01*
X150388967Y-86145000D01*
X150073088Y-86207832D01*
X149775537Y-86331082D01*
X149507748Y-86510013D01*
X149280013Y-86737748D01*
X149101082Y-87005537D01*
X148977832Y-87303088D01*
X148915000Y-87618967D01*
X147678219Y-87618967D01*
X147647961Y-87398325D01*
X147542795Y-87093912D01*
X147449814Y-86919956D01*
X147185413Y-86824192D01*
X146229605Y-87780000D01*
X145870395Y-87780000D01*
X144914587Y-86824192D01*
X144650186Y-86919956D01*
X144509296Y-87209571D01*
X144427616Y-87521108D01*
X144408282Y-87842595D01*
X137996155Y-87842595D01*
X137888446Y-87734886D01*
X137374979Y-87391799D01*
X136804446Y-87155476D01*
X136198771Y-87035000D01*
X135581229Y-87035000D01*
X134975554Y-87155476D01*
X134405021Y-87391799D01*
X133891554Y-87734886D01*
X133454886Y-88171554D01*
X133111799Y-88685021D01*
X132875476Y-89255554D01*
X132765000Y-89810956D01*
X132765000Y-86644587D01*
X145094192Y-86644587D01*
X146050000Y-87600395D01*
X147005808Y-86644587D01*
X146910044Y-86380186D01*
X146620429Y-86239296D01*
X146308892Y-86157616D01*
X145987405Y-86138282D01*
X145668325Y-86182039D01*
X145363912Y-86287205D01*
X145189956Y-86380186D01*
X145094192Y-86644587D01*
X132765000Y-86644587D01*
X132765000Y-82415413D01*
X145094192Y-82415413D01*
X145189956Y-82679814D01*
X145479571Y-82820704D01*
X145791108Y-82902384D01*
X146112595Y-82921718D01*
X146431675Y-82877961D01*
X146736088Y-82772795D01*
X146910044Y-82679814D01*
X147005808Y-82415413D01*
X146050000Y-81459605D01*
X145094192Y-82415413D01*
X132765000Y-82415413D01*
X132765000Y-81342595D01*
X144408282Y-81342595D01*
X144452039Y-81661675D01*
X144557205Y-81966088D01*
X144650186Y-82140044D01*
X144914587Y-82235808D01*
X145870395Y-81280000D01*
X146229605Y-81280000D01*
X147185413Y-82235808D01*
X147449814Y-82140044D01*
X147590704Y-81850429D01*
X147672384Y-81538892D01*
X147691718Y-81217405D01*
X147678219Y-81118967D01*
X148915000Y-81118967D01*
X148915000Y-81441033D01*
X148977832Y-81756912D01*
X149101082Y-82054463D01*
X149280013Y-82322252D01*
X149507748Y-82549987D01*
X149775537Y-82728918D01*
X150073088Y-82852168D01*
X150388967Y-82915000D01*
X150711033Y-82915000D01*
X151026912Y-82852168D01*
X151324463Y-82728918D01*
X151592252Y-82549987D01*
X151819987Y-82322252D01*
X151998918Y-82054463D01*
X152122168Y-81756912D01*
X152185000Y-81441033D01*
X152185000Y-81118967D01*
X152122168Y-80803088D01*
X151998918Y-80505537D01*
X151819987Y-80237748D01*
X151592252Y-80010013D01*
X151585000Y-80005167D01*
X151585000Y-70858710D01*
X152828711Y-69615000D01*
X154694629Y-69615000D01*
X154784662Y-69749744D01*
X155040256Y-70005338D01*
X155340801Y-70206156D01*
X155674750Y-70344482D01*
X156029268Y-70415000D01*
X156390732Y-70415000D01*
X156745250Y-70344482D01*
X157079199Y-70206156D01*
X157379744Y-70005338D01*
X157635338Y-69749744D01*
X157836156Y-69449199D01*
X157974482Y-69115250D01*
X158045000Y-68760732D01*
X158045000Y-68399268D01*
X157974482Y-68044750D01*
X157836156Y-67710801D01*
X157635338Y-67410256D01*
X157379744Y-67154662D01*
X157079199Y-66953844D01*
X156745250Y-66815518D01*
X156390732Y-66745000D01*
X156029268Y-66745000D01*
X155674750Y-66815518D01*
X155340801Y-66953844D01*
X155040256Y-67154662D01*
X154784662Y-67410256D01*
X154694629Y-67545000D01*
X152450827Y-67545000D01*
X152399999Y-67539994D01*
X152349171Y-67545000D01*
X152349162Y-67545000D01*
X152197105Y-67559976D01*
X152002007Y-67619159D01*
X151918309Y-67663896D01*
X151822202Y-67715266D01*
X151704092Y-67812197D01*
X151664604Y-67844604D01*
X151632197Y-67884092D01*
X149854092Y-69662198D01*
X149814605Y-69694604D01*
X149782198Y-69734092D01*
X149782197Y-69734093D01*
X149685266Y-69852203D01*
X149589160Y-70032007D01*
X149529977Y-70227105D01*
X149509994Y-70430000D01*
X149515001Y-70480838D01*
X149515000Y-80005167D01*
X149507748Y-80010013D01*
X149280013Y-80237748D01*
X149101082Y-80505537D01*
X148977832Y-80803088D01*
X148915000Y-81118967D01*
X147678219Y-81118967D01*
X147647961Y-80898325D01*
X147542795Y-80593912D01*
X147449814Y-80419956D01*
X147185413Y-80324192D01*
X146229605Y-81280000D01*
X145870395Y-81280000D01*
X144914587Y-80324192D01*
X144650186Y-80419956D01*
X144509296Y-80709571D01*
X144427616Y-81021108D01*
X144408282Y-81342595D01*
X132765000Y-81342595D01*
X132765000Y-80144587D01*
X145094192Y-80144587D01*
X146050000Y-81100395D01*
X147005808Y-80144587D01*
X146910044Y-79880186D01*
X146620429Y-79739296D01*
X146308892Y-79657616D01*
X145987405Y-79638282D01*
X145668325Y-79682039D01*
X145363912Y-79787205D01*
X145189956Y-79880186D01*
X145094192Y-80144587D01*
X132765000Y-80144587D01*
X132765000Y-68939044D01*
X132875476Y-69494446D01*
X133111799Y-70064979D01*
X133454886Y-70578446D01*
X133891554Y-71015114D01*
X134405021Y-71358201D01*
X134975554Y-71594524D01*
X135581229Y-71715000D01*
X136198771Y-71715000D01*
X136804446Y-71594524D01*
X137374979Y-71358201D01*
X137888446Y-71015114D01*
X138325114Y-70578446D01*
X138668201Y-70064979D01*
X138904524Y-69494446D01*
X139025000Y-68888771D01*
X139025000Y-68271229D01*
X138904524Y-67665554D01*
X138668201Y-67095021D01*
X138325114Y-66581554D01*
X137888446Y-66144886D01*
X137374979Y-65801799D01*
X136804446Y-65565476D01*
X136249044Y-65455000D01*
X163470956Y-65455000D01*
X162915554Y-65565476D01*
M02*
